<svg xmlns="http://www.w3.org/2000/svg" xmlns:xlink="http://www.w3.org/1999/xlink" zoomAndPan="magnify" preserveAspectRatio="xMidYMid meet" version="1.0" viewBox="31.91 151.7 314.76 62.06"><defs><g></g></defs><path fill="#fde8f9" d="M 37.136719 195.488281 C 38.660156 195.488281 39.890625 196.71875 39.890625 198.242188 C 39.890625 199.761719 38.660156 200.996094 37.136719 200.996094 C 35.617188 200.996094 34.382812 199.761719 34.382812 198.242188 C 34.382812 196.71875 35.617188 195.488281 37.136719 195.488281 Z M 37.136719 195.488281 " fill-opacity="1" fill-rule="nonzero"></path><path fill="#fde8f9" d="M 86.707031 198.242188 C 88.230469 198.242188 89.460938 199.472656 89.460938 200.996094 C 89.460938 202.515625 88.230469 203.75 86.707031 203.75 C 85.1875 203.75 83.953125 202.515625 83.953125 200.996094 C 83.953125 199.472656 85.1875 198.242188 86.707031 198.242188 Z M 86.707031 198.242188 " fill-opacity="1" fill-rule="nonzero"></path><path fill="#fde8f9" d="M 78.445312 154.179688 C 79.96875 154.179688 81.199219 155.410156 81.199219 156.933594 C 81.199219 158.453125 79.96875 159.6875 78.445312 159.6875 C 76.925781 159.6875 75.691406 158.453125 75.691406 156.933594 C 75.691406 155.410156 76.925781 154.179688 78.445312 154.179688 Z M 78.445312 154.179688 " fill-opacity="1" fill-rule="nonzero"></path><path fill="#6e9137" d="M 73.207031 195.753906 L 69.820312 211.609375 L 68.601562 209.390625 C 67.65625 207.667969 67.074219 205.773438 66.882812 203.816406 L 66.816406 203.152344 Z M 73.207031 195.753906 " fill-opacity="1" fill-rule="nonzero"></path><path fill="#6e9137" d="M 78.183594 172.46875 L 75.195312 186.449219 L 70.585938 188.601562 C 69.101562 189.476562 67.570312 190.765625 66.257812 192.238281 C 66.628906 189.851562 67.480469 187.425781 68.570312 185.597656 Z M 78.183594 172.46875 " fill-opacity="1" fill-rule="nonzero"></path><path fill="#6e9137" d="M 55.171875 189.238281 C 58.273438 192.859375 59.832031 197.550781 59.511719 202.308594 L 59.167969 206.503906 L 59.167969 212.011719 L 56.074219 210.164062 C 53.355469 208.542969 51.25 206.058594 50.089844 203.109375 L 33.007812 159.597656 Z M 55.171875 189.238281 " fill-opacity="1" fill-rule="nonzero"></path><path fill="#8ec155" d="M 85.332031 181.71875 L 73.207031 195.753906 L 66.816406 203.152344 L 59.167969 212.011719 L 59.167969 206.503906 L 63.300781 196.863281 C 63.902344 195.292969 64.976562 193.679688 66.257812 192.238281 C 67.570312 190.765625 69.101562 189.476562 70.585938 188.601562 L 75.195312 186.449219 Z M 85.332031 181.71875 " fill-opacity="1" fill-rule="nonzero"></path><path fill="#000000" d="M 66.261719 193.339844 C 66.203125 193.339844 66.148438 193.335938 66.089844 193.324219 C 65.488281 193.230469 65.078125 192.667969 65.171875 192.066406 C 65.5625 189.558594 66.457031 186.996094 67.621094 185.03125 C 67.640625 185.003906 67.660156 184.972656 67.679688 184.945312 L 77.296875 171.816406 C 77.601562 171.398438 78.160156 171.25 78.636719 171.460938 C 79.109375 171.675781 79.371094 172.1875 79.261719 172.695312 L 76.273438 186.679688 C 76.148438 187.273438 75.5625 187.652344 74.964844 187.527344 C 74.371094 187.398438 73.992188 186.816406 74.121094 186.21875 L 76.03125 177.269531 L 69.488281 186.203125 C 68.472656 187.925781 67.695312 190.183594 67.347656 192.40625 C 67.261719 192.949219 66.792969 193.339844 66.261719 193.339844 Z M 66.261719 193.339844 " fill-opacity="1" fill-rule="nonzero"></path><path fill="#000000" d="M 69.820312 212.710938 C 69.421875 212.710938 69.050781 212.496094 68.855469 212.140625 L 67.636719 209.921875 C 66.613281 208.058594 65.992188 206.039062 65.785156 203.925781 L 65.722656 203.261719 C 65.664062 202.65625 66.105469 202.117188 66.710938 202.058594 C 67.316406 201.996094 67.855469 202.441406 67.914062 203.046875 L 67.980469 203.710938 C 68.140625 205.382812 68.605469 206.980469 69.363281 208.472656 L 72.132812 195.523438 C 72.257812 194.929688 72.84375 194.550781 73.4375 194.675781 C 74.035156 194.804688 74.414062 195.390625 74.285156 195.984375 L 70.898438 211.839844 C 70.800781 212.289062 70.433594 212.632812 69.980469 212.699219 C 69.925781 212.707031 69.871094 212.710938 69.820312 212.710938 Z M 69.820312 212.710938 " fill-opacity="1" fill-rule="nonzero"></path><path fill="#000000" d="M 59.167969 213.113281 C 58.914062 213.113281 58.65625 213.023438 58.449219 212.84375 C 57.988281 212.445312 57.9375 211.75 58.335938 211.289062 L 81.132812 184.894531 L 71.101562 189.578125 C 69.734375 190.390625 68.308594 191.59375 67.082031 192.96875 C 65.8125 194.394531 64.859375 195.878906 64.328125 197.257812 C 64.324219 197.273438 64.316406 197.285156 64.3125 197.296875 L 60.179688 206.9375 C 59.941406 207.496094 59.292969 207.753906 58.734375 207.515625 C 58.175781 207.277344 57.917969 206.628906 58.15625 206.070312 L 62.277344 196.449219 C 62.90625 194.828125 63.996094 193.121094 65.4375 191.503906 C 66.824219 189.945312 68.457031 188.578125 70.027344 187.652344 C 70.058594 187.636719 70.089844 187.617188 70.121094 187.605469 L 84.863281 180.71875 C 85.335938 180.5 85.894531 180.640625 86.210938 181.054688 C 86.523438 181.46875 86.503906 182.042969 86.164062 182.4375 L 60.003906 212.730469 C 59.785156 212.984375 59.476562 213.113281 59.167969 213.113281 Z M 59.167969 213.113281 " fill-opacity="1" fill-rule="nonzero"></path><path fill="#000000" d="M 59.167969 213.113281 C 58.972656 213.113281 58.777344 213.058594 58.605469 212.957031 L 55.511719 211.113281 C 52.59375 209.371094 50.304688 206.671875 49.066406 203.511719 L 31.980469 160 C 31.78125 159.484375 31.988281 158.902344 32.472656 158.632812 C 32.953125 158.367188 33.558594 158.496094 33.890625 158.9375 L 56.03125 188.550781 C 59.328125 192.410156 60.953125 197.320312 60.609375 202.382812 C 60.609375 202.386719 60.609375 202.394531 60.609375 202.398438 L 60.269531 206.546875 L 60.269531 212.011719 C 60.269531 212.40625 60.058594 212.773438 59.710938 212.96875 C 59.542969 213.0625 59.355469 213.113281 59.167969 213.113281 Z M 37.019531 166.804688 L 51.117188 202.707031 C 52.179688 205.414062 54.140625 207.730469 56.640625 209.21875 L 58.066406 210.070312 L 58.066406 206.503906 C 58.066406 206.472656 58.070312 206.441406 58.070312 206.414062 L 58.410156 202.226562 C 58.714844 197.734375 57.269531 193.375 54.335938 189.957031 C 54.316406 189.9375 54.304688 189.917969 54.289062 189.898438 Z M 37.019531 166.804688 " fill-opacity="1" fill-rule="nonzero"></path><path fill="#000000" d="M 65.886719 181.53125 C 65.445312 181.53125 65.03125 181.265625 64.859375 180.832031 L 54.011719 153.203125 C 53.824219 152.726562 53.992188 152.183594 54.414062 151.894531 C 54.839844 151.601562 55.40625 151.644531 55.785156 151.992188 C 55.824219 152.027344 59.753906 155.652344 63.628906 160.023438 C 68.964844 166.046875 71.671875 170.605469 71.671875 173.574219 C 71.671875 174.179688 71.175781 174.675781 70.570312 174.675781 C 69.960938 174.675781 69.46875 174.179688 69.46875 173.574219 C 69.46875 169.75 62.859375 162.164062 57.929688 157.148438 L 66.910156 180.027344 C 67.132812 180.59375 66.855469 181.230469 66.289062 181.453125 C 66.15625 181.507812 66.019531 181.53125 65.886719 181.53125 Z M 65.886719 181.53125 " fill-opacity="1" fill-rule="nonzero"></path><path fill="#000000" d="M 86.707031 204.851562 C 84.582031 204.851562 82.851562 203.121094 82.851562 200.996094 C 82.851562 198.867188 84.582031 197.140625 86.707031 197.140625 C 88.832031 197.140625 90.5625 198.867188 90.5625 200.996094 C 90.5625 203.121094 88.832031 204.851562 86.707031 204.851562 Z M 86.707031 199.34375 C 85.796875 199.34375 85.054688 200.082031 85.054688 200.996094 C 85.054688 201.90625 85.796875 202.648438 86.707031 202.648438 C 87.617188 202.648438 88.359375 201.90625 88.359375 200.996094 C 88.359375 200.082031 87.617188 199.34375 86.707031 199.34375 Z M 86.707031 199.34375 " fill-opacity="1" fill-rule="nonzero"></path><path fill="#000000" d="M 78.445312 160.789062 C 76.320312 160.789062 74.589844 159.058594 74.589844 156.933594 C 74.589844 154.804688 76.320312 153.078125 78.445312 153.078125 C 80.570312 153.078125 82.300781 154.804688 82.300781 156.933594 C 82.300781 159.058594 80.570312 160.789062 78.445312 160.789062 Z M 78.445312 155.28125 C 77.535156 155.28125 76.792969 156.019531 76.792969 156.933594 C 76.792969 157.84375 77.535156 158.585938 78.445312 158.585938 C 79.355469 158.585938 80.097656 157.84375 80.097656 156.933594 C 80.097656 156.019531 79.355469 155.28125 78.445312 155.28125 Z M 78.445312 155.28125 " fill-opacity="1" fill-rule="nonzero"></path><path fill="#000000" d="M 37.136719 202.097656 C 35.011719 202.097656 33.28125 200.367188 33.28125 198.242188 C 33.28125 196.113281 35.011719 194.386719 37.136719 194.386719 C 39.261719 194.386719 40.992188 196.113281 40.992188 198.242188 C 40.992188 200.367188 39.261719 202.097656 37.136719 202.097656 Z M 37.136719 196.589844 C 36.226562 196.589844 35.484375 197.328125 35.484375 198.242188 C 35.484375 199.152344 36.226562 199.894531 37.136719 199.894531 C 38.046875 199.894531 38.789062 199.152344 38.789062 198.242188 C 38.789062 197.328125 38.046875 196.589844 37.136719 196.589844 Z M 37.136719 196.589844 " fill-opacity="1" fill-rule="nonzero"></path><path fill="#000000" d="M 75.691406 213.113281 L 45.398438 213.113281 C 44.789062 213.113281 44.296875 212.617188 44.296875 212.011719 C 44.296875 211.402344 44.789062 210.910156 45.398438 210.910156 L 75.691406 210.910156 C 76.300781 210.910156 76.792969 211.402344 76.792969 212.011719 C 76.792969 212.617188 76.300781 213.113281 75.691406 213.113281 Z M 75.691406 213.113281 " fill-opacity="1" fill-rule="nonzero"></path><path fill="#000000" d="M 46.777344 178.6875 C 46.613281 178.6875 46.445312 178.652344 46.289062 178.574219 C 45.742188 178.304688 45.519531 177.644531 45.789062 177.101562 C 49.929688 168.6875 47.347656 162 47.148438 161.511719 C 46.96875 161.105469 47.042969 160.617188 47.375 160.285156 C 47.804688 159.855469 48.5 159.855469 48.933594 160.285156 C 49.035156 160.386719 49.117188 160.507812 49.171875 160.640625 C 49.320312 160.996094 50.070312 162.914062 50.277344 165.910156 C 50.554688 169.964844 49.6875 174.167969 47.765625 178.074219 C 47.574219 178.460938 47.183594 178.6875 46.777344 178.6875 Z M 46.777344 178.6875 " fill-opacity="1" fill-rule="nonzero"></path><path fill="#000000" d="M 56.414062 181.441406 C 55.816406 181.441406 55.328125 180.964844 55.3125 180.367188 C 55.097656 171.300781 47.382812 161.859375 47.304688 161.765625 C 46.917969 161.296875 46.984375 160.601562 47.453125 160.214844 C 47.921875 159.828125 48.617188 159.894531 49.003906 160.363281 C 49.339844 160.773438 57.28125 170.496094 57.515625 180.3125 C 57.53125 180.921875 57.050781 181.425781 56.441406 181.441406 C 56.433594 181.441406 56.421875 181.441406 56.414062 181.441406 Z M 56.414062 181.441406 " fill-opacity="1" fill-rule="nonzero"></path><g fill="#023a15" fill-opacity="1"><g transform="translate(89.818357, 213.193947)"><g><path d="M 10.078125 0 C 9.441406 0 8.925781 -0.175781 8.53125 -0.53125 C 8.144531 -0.882812 7.914062 -1.320312 7.84375 -1.84375 L 1.84375 -37.6875 C 1.8125 -37.757812 1.796875 -37.875 1.796875 -38.03125 C 1.796875 -38.320312 1.914062 -38.585938 2.15625 -38.828125 C 2.394531 -39.078125 2.664062 -39.203125 2.96875 -39.203125 L 10.296875 -39.203125 C 11.378906 -39.203125 11.976562 -38.769531 12.09375 -37.90625 L 15.515625 -16.75 L 19.375 -29.015625 C 19.675781 -30.015625 20.289062 -30.515625 21.21875 -30.515625 L 25.421875 -30.515625 C 26.359375 -30.515625 26.972656 -30.015625 27.265625 -29.015625 L 31.140625 -16.796875 L 34.609375 -37.90625 C 34.679688 -38.351562 34.847656 -38.679688 35.109375 -38.890625 C 35.367188 -39.097656 35.78125 -39.203125 36.34375 -39.203125 L 43.6875 -39.203125 C 44.019531 -39.203125 44.296875 -39.078125 44.515625 -38.828125 C 44.742188 -38.585938 44.859375 -38.320312 44.859375 -38.03125 L 44.859375 -37.6875 L 38.859375 -1.84375 C 38.785156 -1.320312 38.539062 -0.882812 38.125 -0.53125 C 37.71875 -0.175781 37.21875 0 36.625 0 L 30.96875 0 C 30.375 0 29.90625 -0.144531 29.5625 -0.4375 C 29.226562 -0.738281 29.003906 -1.078125 28.890625 -1.453125 L 23.359375 -16.96875 L 17.8125 -1.453125 C 17.65625 -1.078125 17.410156 -0.738281 17.078125 -0.4375 C 16.742188 -0.144531 16.28125 0 15.6875 0 Z M 10.078125 0 "></path></g></g></g><g fill="#023a15" fill-opacity="1"><g transform="translate(136.459849, 213.193947)"><g><path d="M 16.859375 0.5625 C 12.304688 0.5625 8.722656 -0.660156 6.109375 -3.109375 C 3.492188 -5.554688 2.148438 -9.113281 2.078125 -13.78125 L 2.078125 -15.515625 C 2.222656 -19.953125 3.601562 -23.421875 6.21875 -25.921875 C 8.832031 -28.429688 12.359375 -29.6875 16.796875 -29.6875 C 20.003906 -29.6875 22.71875 -29.039062 24.9375 -27.75 C 27.164062 -26.457031 28.828125 -24.679688 29.921875 -22.421875 C 31.023438 -20.171875 31.578125 -17.609375 31.578125 -14.734375 L 31.578125 -13.328125 C 31.578125 -12.921875 31.4375 -12.578125 31.15625 -12.296875 C 30.882812 -12.015625 30.539062 -11.875 30.125 -11.875 L 12.375 -11.875 L 12.375 -11.53125 C 12.414062 -9.851562 12.804688 -8.5 13.546875 -7.46875 C 14.296875 -6.445312 15.363281 -5.9375 16.75 -5.9375 C 17.644531 -5.9375 18.363281 -6.113281 18.90625 -6.46875 C 19.445312 -6.820312 19.957031 -7.28125 20.4375 -7.84375 C 20.769531 -8.21875 21.039062 -8.453125 21.25 -8.546875 C 21.457031 -8.640625 21.785156 -8.6875 22.234375 -8.6875 L 29.5625 -8.6875 C 29.90625 -8.6875 30.195312 -8.582031 30.4375 -8.375 C 30.675781 -8.164062 30.796875 -7.910156 30.796875 -7.609375 C 30.796875 -6.640625 30.242188 -5.5 29.140625 -4.1875 C 28.046875 -2.882812 26.441406 -1.765625 24.328125 -0.828125 C 22.222656 0.0976562 19.734375 0.5625 16.859375 0.5625 Z M 21.28125 -17.578125 L 21.28125 -17.703125 C 21.28125 -19.492188 20.882812 -20.882812 20.09375 -21.875 C 19.3125 -22.863281 18.210938 -23.359375 16.796875 -23.359375 C 15.378906 -23.359375 14.285156 -22.863281 13.515625 -21.875 C 12.753906 -20.882812 12.375 -19.492188 12.375 -17.703125 L 12.375 -17.578125 Z M 21.28125 -17.578125 "></path></g></g></g><g fill="#023a15" fill-opacity="1"><g transform="translate(169.88718, 213.193947)"><g><path d="M 16.859375 0.5625 C 12.304688 0.5625 8.722656 -0.660156 6.109375 -3.109375 C 3.492188 -5.554688 2.148438 -9.113281 2.078125 -13.78125 L 2.078125 -15.515625 C 2.222656 -19.953125 3.601562 -23.421875 6.21875 -25.921875 C 8.832031 -28.429688 12.359375 -29.6875 16.796875 -29.6875 C 20.003906 -29.6875 22.71875 -29.039062 24.9375 -27.75 C 27.164062 -26.457031 28.828125 -24.679688 29.921875 -22.421875 C 31.023438 -20.171875 31.578125 -17.609375 31.578125 -14.734375 L 31.578125 -13.328125 C 31.578125 -12.921875 31.4375 -12.578125 31.15625 -12.296875 C 30.882812 -12.015625 30.539062 -11.875 30.125 -11.875 L 12.375 -11.875 L 12.375 -11.53125 C 12.414062 -9.851562 12.804688 -8.5 13.546875 -7.46875 C 14.296875 -6.445312 15.363281 -5.9375 16.75 -5.9375 C 17.644531 -5.9375 18.363281 -6.113281 18.90625 -6.46875 C 19.445312 -6.820312 19.957031 -7.28125 20.4375 -7.84375 C 20.769531 -8.21875 21.039062 -8.453125 21.25 -8.546875 C 21.457031 -8.640625 21.785156 -8.6875 22.234375 -8.6875 L 29.5625 -8.6875 C 29.90625 -8.6875 30.195312 -8.582031 30.4375 -8.375 C 30.675781 -8.164062 30.796875 -7.910156 30.796875 -7.609375 C 30.796875 -6.640625 30.242188 -5.5 29.140625 -4.1875 C 28.046875 -2.882812 26.441406 -1.765625 24.328125 -0.828125 C 22.222656 0.0976562 19.734375 0.5625 16.859375 0.5625 Z M 21.28125 -17.578125 L 21.28125 -17.703125 C 21.28125 -19.492188 20.882812 -20.882812 20.09375 -21.875 C 19.3125 -22.863281 18.210938 -23.359375 16.796875 -23.359375 C 15.378906 -23.359375 14.285156 -22.863281 13.515625 -21.875 C 12.753906 -20.882812 12.375 -19.492188 12.375 -17.703125 L 12.375 -17.578125 Z M 21.28125 -17.578125 "></path></g></g></g><g fill="#023a15" fill-opacity="1"><g transform="translate(203.314511, 213.193947)"><g><path d="M 14.109375 0.5625 C 10.492188 0.5625 7.648438 -0.570312 5.578125 -2.84375 C 3.503906 -5.125 2.390625 -8.375 2.234375 -12.59375 L 2.1875 -14.5625 L 2.234375 -16.578125 C 2.390625 -20.648438 3.507812 -23.851562 5.59375 -26.1875 C 7.6875 -28.519531 10.523438 -29.6875 14.109375 -29.6875 C 17.472656 -29.6875 20.179688 -28.601562 22.234375 -26.4375 L 22.234375 -38.359375 C 22.234375 -38.765625 22.375 -39.097656 22.65625 -39.359375 C 22.9375 -39.628906 23.257812 -39.765625 23.625 -39.765625 L 30.859375 -39.765625 C 31.265625 -39.765625 31.609375 -39.628906 31.890625 -39.359375 C 32.171875 -39.097656 32.3125 -38.765625 32.3125 -38.359375 L 32.3125 -1.40625 C 32.3125 -0.988281 32.171875 -0.648438 31.890625 -0.390625 C 31.609375 -0.128906 31.265625 0 30.859375 0 L 24.1875 0 C 23.8125 0 23.484375 -0.140625 23.203125 -0.421875 C 22.929688 -0.703125 22.796875 -1.03125 22.796875 -1.40625 L 22.796875 -3.140625 C 20.773438 -0.671875 17.878906 0.5625 14.109375 0.5625 Z M 17.359375 -7.21875 C 18.960938 -7.21875 20.15625 -7.726562 20.9375 -8.75 C 21.726562 -9.78125 22.160156 -11.082031 22.234375 -12.65625 C 22.304688 -13.695312 22.34375 -14.40625 22.34375 -14.78125 C 22.34375 -15.195312 22.304688 -15.890625 22.234375 -16.859375 C 22.160156 -18.316406 21.722656 -19.519531 20.921875 -20.46875 C 20.117188 -21.414062 18.929688 -21.890625 17.359375 -21.890625 C 15.679688 -21.890625 14.476562 -21.394531 13.75 -20.40625 C 13.019531 -19.414062 12.597656 -18.046875 12.484375 -16.296875 L 12.4375 -14.5625 L 12.484375 -12.828125 C 12.597656 -11.066406 13.019531 -9.691406 13.75 -8.703125 C 14.476562 -7.710938 15.679688 -7.21875 17.359375 -7.21875 Z M 17.359375 -7.21875 "></path></g></g></g><g fill="#023a15" fill-opacity="1"><g transform="translate(238.813556, 213.193947)"><g><path d="M 5.203125 0 C 4.796875 0 4.460938 -0.128906 4.203125 -0.390625 C 3.941406 -0.648438 3.8125 -0.988281 3.8125 -1.40625 L 3.8125 -37.75 C 3.8125 -38.15625 3.941406 -38.5 4.203125 -38.78125 C 4.460938 -39.0625 4.796875 -39.203125 5.203125 -39.203125 L 12.875 -39.203125 C 13.289062 -39.203125 13.640625 -39.0625 13.921875 -38.78125 C 14.203125 -38.5 14.34375 -38.15625 14.34375 -37.75 L 14.34375 -24.46875 L 27.546875 -24.46875 L 27.546875 -37.75 C 27.546875 -38.15625 27.6875 -38.5 27.96875 -38.78125 C 28.25 -39.0625 28.597656 -39.203125 29.015625 -39.203125 L 36.625 -39.203125 C 37.03125 -39.203125 37.375 -39.0625 37.65625 -38.78125 C 37.9375 -38.5 38.078125 -38.15625 38.078125 -37.75 L 38.078125 -1.40625 C 38.078125 -0.988281 37.9375 -0.648438 37.65625 -0.390625 C 37.375 -0.128906 37.03125 0 36.625 0 L 29.015625 0 C 28.597656 0 28.25 -0.128906 27.96875 -0.390625 C 27.6875 -0.648438 27.546875 -0.988281 27.546875 -1.40625 L 27.546875 -15.125 L 14.34375 -15.125 L 14.34375 -1.40625 C 14.34375 -0.988281 14.203125 -0.648438 13.921875 -0.390625 C 13.640625 -0.128906 13.289062 0 12.875 0 Z M 5.203125 0 "></path></g></g></g><g fill="#023a15" fill-opacity="1"><g transform="translate(280.695713, 213.193947)"><g><path d="M 11.984375 0.5625 C 10.003906 0.5625 8.203125 0.179688 6.578125 -0.578125 C 4.953125 -1.347656 3.679688 -2.40625 2.765625 -3.75 C 1.859375 -5.09375 1.40625 -6.566406 1.40625 -8.171875 C 1.40625 -10.710938 2.457031 -12.773438 4.5625 -14.359375 C 6.675781 -15.953125 9.578125 -17.046875 13.265625 -17.640625 L 20.21875 -18.703125 L 20.21875 -19.375 C 20.21875 -20.757812 19.9375 -21.769531 19.375 -22.40625 C 18.8125 -23.039062 17.859375 -23.359375 16.515625 -23.359375 C 15.773438 -23.359375 15.148438 -23.222656 14.640625 -22.953125 C 14.140625 -22.691406 13.570312 -22.300781 12.9375 -21.78125 C 12.445312 -21.375 12.015625 -21.078125 11.640625 -20.890625 C 11.492188 -20.628906 11.3125 -20.5 11.09375 -20.5 L 4.59375 -20.5 C 4.21875 -20.5 3.90625 -20.617188 3.65625 -20.859375 C 3.414062 -21.097656 3.316406 -21.390625 3.359375 -21.734375 C 3.398438 -22.734375 3.90625 -23.859375 4.875 -25.109375 C 5.84375 -26.359375 7.316406 -27.429688 9.296875 -28.328125 C 11.273438 -29.234375 13.71875 -29.6875 16.625 -29.6875 C 21.257812 -29.6875 24.695312 -28.664062 26.9375 -26.625 C 29.175781 -24.59375 30.296875 -21.84375 30.296875 -18.375 L 30.296875 -1.40625 C 30.296875 -1.03125 30.164062 -0.703125 29.90625 -0.421875 C 29.644531 -0.140625 29.304688 0 28.890625 0 L 22.015625 0 C 21.640625 0 21.3125 -0.140625 21.03125 -0.421875 C 20.75 -0.703125 20.609375 -1.03125 20.609375 -1.40625 L 20.609375 -3.359375 C 19.785156 -2.203125 18.644531 -1.257812 17.1875 -0.53125 C 15.738281 0.195312 14.003906 0.5625 11.984375 0.5625 Z M 14.78125 -6.046875 C 16.425781 -6.046875 17.757812 -6.585938 18.78125 -7.671875 C 19.8125 -8.753906 20.328125 -10.320312 20.328125 -12.375 L 20.328125 -13.046875 L 15.6875 -12.265625 C 12.539062 -11.671875 10.96875 -10.550781 10.96875 -8.90625 C 10.96875 -8.039062 11.332031 -7.347656 12.0625 -6.828125 C 12.789062 -6.304688 13.695312 -6.046875 14.78125 -6.046875 Z M 14.78125 -6.046875 "></path></g></g></g><g fill="#023a15" fill-opacity="1"><g transform="translate(313.89906, 213.193947)"><g><path d="M 4.640625 0 C 4.234375 0 3.890625 -0.128906 3.609375 -0.390625 C 3.328125 -0.648438 3.1875 -0.988281 3.1875 -1.40625 L 3.1875 -38.359375 C 3.1875 -38.765625 3.328125 -39.097656 3.609375 -39.359375 C 3.890625 -39.628906 4.234375 -39.765625 4.640625 -39.765625 L 11.484375 -39.765625 C 11.890625 -39.765625 12.222656 -39.628906 12.484375 -39.359375 C 12.742188 -39.097656 12.875 -38.765625 12.875 -38.359375 L 12.875 -19.65625 L 20.328125 -28.171875 C 20.398438 -28.242188 20.539062 -28.375 20.75 -28.5625 C 20.957031 -28.75 21.171875 -28.890625 21.390625 -28.984375 C 21.617188 -29.078125 21.898438 -29.125 22.234375 -29.125 L 30.125 -29.125 C 30.457031 -29.125 30.742188 -29 30.984375 -28.75 C 31.234375 -28.507812 31.359375 -28.203125 31.359375 -27.828125 C 31.359375 -27.492188 31.226562 -27.195312 30.96875 -26.9375 L 21.109375 -16.078125 L 32.375 -2.125 C 32.632812 -1.789062 32.765625 -1.507812 32.765625 -1.28125 C 32.765625 -0.914062 32.640625 -0.609375 32.390625 -0.359375 C 32.148438 -0.117188 31.84375 0 31.46875 0 L 23.359375 0 C 22.867188 0 22.5 -0.0703125 22.25 -0.21875 C 22.007812 -0.375 21.722656 -0.617188 21.390625 -0.953125 L 12.875 -11.484375 L 12.875 -1.40625 C 12.875 -1.03125 12.742188 -0.703125 12.484375 -0.421875 C 12.222656 -0.140625 11.890625 0 11.484375 0 Z M 4.640625 0 "></path></g></g></g></svg>