<svg xmlns="http://www.w3.org/2000/svg" version="1.0" viewBox="31.91 151.7 314.76 62.06"><path fill="#fde8f9" d="M37.137 195.488a2.75 2.75 0 0 1 2.754 2.754 2.753 2.753 0 1 1-5.508 0 2.753 2.753 0 0 1 2.754-2.754ZM86.707 198.242a2.75 2.75 0 0 1 2.754 2.754 2.753 2.753 0 1 1-5.508 0 2.753 2.753 0 0 1 2.754-2.754ZM78.445 154.18a2.75 2.75 0 0 1 2.754 2.754 2.753 2.753 0 1 1-5.508 0 2.753 2.753 0 0 1 2.754-2.754Zm0 0"/><path fill="#6e9137" d="m73.207 195.754-3.387 15.855-1.218-2.218a14.514 14.514 0 0 1-1.72-5.575l-.066-.664ZM78.184 172.469l-2.989 13.98-4.61 2.153c-1.483.875-3.015 2.164-4.327 3.636.37-2.386 1.222-4.812 2.312-6.64ZM55.172 189.238a18.21 18.21 0 0 1 4.34 13.07l-.344 4.196v5.508l-3.094-1.848a14.315 14.315 0 0 1-5.984-7.055l-17.082-43.511Zm0 0"/><path fill="#8ec155" d="m85.332 181.719-12.125 14.035-6.39 7.398-7.649 8.86v-5.508l4.133-9.64c.601-1.571 1.676-3.184 2.957-4.626 1.312-1.472 2.844-2.761 4.328-3.636l4.61-2.153Zm0 0"/><path d="M66.262 193.34a.853.853 0 0 1-.172-.016 1.1 1.1 0 0 1-.918-1.258c.39-2.507 1.285-5.07 2.45-7.035l.058-.086 9.617-13.129a1.101 1.101 0 0 1 1.965.879l-2.989 13.985a1.1 1.1 0 1 1-2.152-.46l1.91-8.95-6.543 8.933c-1.015 1.723-1.793 3.98-2.14 6.203a1.105 1.105 0 0 1-1.086.934ZM69.82 212.71a1.1 1.1 0 0 1-.965-.57l-1.218-2.218a15.535 15.535 0 0 1-1.852-5.996l-.062-.664a1.1 1.1 0 1 1 2.191-.215l.066.664a13.25 13.25 0 0 0 1.383 4.762l2.77-12.95a1.101 1.101 0 1 1 2.152.461l-3.387 15.856a1.107 1.107 0 0 1-1.078.87Zm0 0"/><path d="M59.168 213.113a1.102 1.102 0 0 1-.832-1.824l22.797-26.394-10.031 4.683c-1.368.813-2.793 2.016-4.02 3.39-1.27 1.427-2.223 2.91-2.754 4.29-.004.015-.012.027-.016.039l-4.132 9.64a1.102 1.102 0 0 1-2.024-.867l4.121-9.62c.63-1.622 1.72-3.329 3.16-4.946 1.387-1.559 3.02-2.926 4.59-3.852.032-.015.063-.035.094-.047l14.742-6.886a1.109 1.109 0 0 1 1.348.336 1.1 1.1 0 0 1-.047 1.382l-26.16 30.293a1.1 1.1 0 0 1-.836.383Zm0 0"/><path d="M59.168 213.113a1.11 1.11 0 0 1-.563-.156l-3.093-1.844a15.474 15.474 0 0 1-6.446-7.601L31.98 160c-.199-.516.008-1.098.493-1.367a1.106 1.106 0 0 1 1.418.304l22.14 29.614a19.174 19.174 0 0 1 4.578 13.832v.015l-.34 4.149v5.465c0 .394-.21.761-.558.957a1.118 1.118 0 0 1-.543.144ZM37.02 166.805l14.097 35.902a13.25 13.25 0 0 0 5.524 6.512l1.425.851v-3.566c0-.031.004-.063.004-.09l.34-4.187a16.97 16.97 0 0 0-4.074-12.27c-.02-.02-.031-.039-.047-.059ZM65.887 181.531c-.442 0-.856-.265-1.028-.699l-10.847-27.629a1.1 1.1 0 0 1 1.773-1.21c.04.034 3.969 3.66 7.844 8.03 5.336 6.024 8.043 10.582 8.043 13.551a1.103 1.103 0 0 1-2.203 0c0-3.824-6.61-11.41-11.54-16.426l8.981 22.88a1.098 1.098 0 0 1-.62 1.425c-.134.055-.27.078-.403.078ZM86.707 204.852a3.861 3.861 0 0 1-3.855-3.856 3.858 3.858 0 0 1 3.855-3.855 3.858 3.858 0 0 1 3.856 3.855 3.861 3.861 0 0 1-3.856 3.856Zm0-5.508a1.653 1.653 0 0 0 0 3.304 1.653 1.653 0 0 0 0-3.305ZM78.445 160.79a3.861 3.861 0 0 1-3.855-3.856 3.858 3.858 0 0 1 3.855-3.856 3.858 3.858 0 0 1 3.856 3.856 3.861 3.861 0 0 1-3.856 3.855Zm0-5.509a1.653 1.653 0 0 0 0 3.305 1.653 1.653 0 0 0 0-3.305ZM37.137 202.098a3.861 3.861 0 0 1-3.856-3.856 3.858 3.858 0 0 1 3.856-3.855 3.858 3.858 0 0 1 3.855 3.855 3.861 3.861 0 0 1-3.855 3.856Zm0-5.508a1.653 1.653 0 0 0 0 3.305 1.653 1.653 0 0 0 0-3.305Zm0 0"/><path d="M75.691 213.113H45.398a1.103 1.103 0 0 1 0-2.203h30.293a1.103 1.103 0 0 1 0 2.203ZM46.777 178.688a1.098 1.098 0 0 1-.988-1.586c4.14-8.415 1.559-15.102 1.36-15.59a1.1 1.1 0 1 1 2.023-.871c.148.355.898 2.273 1.105 5.27.278 4.054-.59 8.257-2.511 12.163a1.103 1.103 0 0 1-.989.613Zm0 0"/><path d="M56.414 181.441a1.102 1.102 0 0 1-1.102-1.074c-.214-9.066-7.93-18.508-8.007-18.601a1.102 1.102 0 0 1 1.699-1.403c.336.41 8.277 10.133 8.512 19.95a1.1 1.1 0 0 1-1.075 1.128h-.027Zm0 0"/><path d="M99.896 213.194c-.636 0-1.152-.176-1.546-.531a2.1 2.1 0 0 1-.688-1.313l-6-35.844a.922.922 0 0 1-.047-.343c0-.29.117-.555.36-.797.238-.25.507-.375.812-.375h7.328c1.082 0 1.68.433 1.797 1.297l3.422 21.156 3.86-12.266c.3-1 .913-1.5 1.843-1.5h4.203c.938 0 1.551.5 1.844 1.5l3.875 12.22 3.469-21.11c.07-.446.238-.774.5-.985.258-.207.672-.312 1.234-.312h7.344c.332 0 .61.125.828.375.227.242.344.508.344.797v.343l-6 35.844c-.074.524-.32.961-.735 1.313-.406.355-.906.53-1.5.53h-5.656c-.594 0-1.062-.144-1.406-.437a2.22 2.22 0 0 1-.672-1.015l-5.531-15.516-5.547 15.516a2.85 2.85 0 0 1-.735 1.015c-.335.293-.796.438-1.39.438ZM153.32 213.756c-4.555 0-8.137-1.222-10.75-3.671-2.618-2.446-3.962-6.004-4.032-10.672v-1.735c.145-4.437 1.523-7.906 4.14-10.406 2.614-2.508 6.141-3.766 10.579-3.766 3.207 0 5.922.649 8.14 1.938 2.227 1.293 3.891 3.07 4.985 5.328 1.101 2.25 1.656 4.813 1.656 7.688v1.406c0 .406-.14.75-.422 1.031a1.378 1.378 0 0 1-1.031.422h-17.75v.344c.039 1.68.43 3.03 1.172 4.062.75 1.024 1.816 1.531 3.203 1.531.894 0 1.613-.175 2.156-.53a7.227 7.227 0 0 0 1.531-1.376c.332-.375.602-.61.813-.703.207-.094.535-.14.984-.14h7.328c.344 0 .633.105.875.312.239.21.36.465.36.766 0 .968-.555 2.109-1.657 3.421-1.093 1.305-2.699 2.422-4.812 3.36-2.105.926-4.594 1.39-7.469 1.39Zm4.421-18.14v-.125c0-1.79-.398-3.18-1.187-4.172-.782-.988-1.883-1.484-3.297-1.484-1.418 0-2.512.496-3.282 1.484-.761.992-1.14 2.383-1.14 4.172v.125ZM186.747 213.756c-4.555 0-8.137-1.222-10.75-3.671-2.618-2.446-3.961-6.004-4.032-10.672v-1.735c.145-4.437 1.524-7.906 4.14-10.406 2.614-2.508 6.142-3.766 10.58-3.766 3.206 0 5.92.649 8.14 1.938 2.226 1.293 3.89 3.07 4.984 5.328 1.102 2.25 1.656 4.813 1.656 7.688v1.406c0 .406-.14.75-.422 1.031a1.378 1.378 0 0 1-1.03.422h-17.75v.344c.038 1.68.429 3.03 1.171 4.062.75 1.024 1.816 1.531 3.203 1.531.895 0 1.613-.175 2.156-.53a7.227 7.227 0 0 0 1.532-1.376c.332-.375.601-.61.812-.703.207-.094.535-.14.985-.14h7.328c.343 0 .632.105.875.312.238.21.36.465.36.766 0 .968-.556 2.109-1.657 3.421-1.094 1.305-2.7 2.422-4.813 3.36-2.105.926-4.593 1.39-7.468 1.39Zm4.421-18.14v-.125c0-1.79-.398-3.18-1.187-4.172-.781-.988-1.883-1.484-3.297-1.484-1.418 0-2.512.496-3.281 1.484-.762.992-1.14 2.383-1.14 4.172v.125ZM217.424 213.756c-3.617 0-6.461-1.132-8.531-3.406-2.075-2.281-3.188-5.531-3.344-9.75l-.047-1.969.047-2.015c.156-4.07 1.273-7.274 3.36-9.61 2.093-2.332 4.929-3.5 8.515-3.5 3.363 0 6.07 1.086 8.125 3.25v-11.921c0-.407.14-.739.422-1 .281-.27.601-.407.969-.407h7.234c.406 0 .75.137 1.031.407.281.261.422.593.422 1v36.953c0 .418-.14.758-.422 1.015-.281.262-.625.39-1.031.39h-6.672a1.35 1.35 0 0 1-.984-.42 1.364 1.364 0 0 1-.407-.985v-1.735c-2.023 2.47-4.918 3.703-8.687 3.703Zm3.25-7.78c1.601 0 2.797-.509 3.578-1.532.79-1.031 1.223-2.332 1.297-3.906.07-1.04.11-1.75.11-2.125 0-.414-.04-1.11-.11-2.078-.074-1.457-.512-2.66-1.313-3.61-.804-.945-1.992-1.422-3.562-1.422-1.68 0-2.883.496-3.61 1.485-.73.992-1.152 2.36-1.265 4.11l-.047 1.733.047 1.735c.113 1.762.535 3.137 1.266 4.125.726.992 1.93 1.484 3.609 1.484ZM244.017 213.194c-.407 0-.743-.129-1-.39-.262-.258-.39-.598-.39-1.016v-36.344c0-.406.128-.75.39-1.031.257-.282.593-.422 1-.422h7.672c.414 0 .765.14 1.046.422.282.28.422.625.422 1.03v13.282h13.203v-13.281c0-.406.141-.75.422-1.031a1.42 1.42 0 0 1 1.047-.422h7.61c.406 0 .75.14 1.03.422.282.28.423.625.423 1.03v36.345c0 .418-.14.758-.422 1.015-.281.262-.625.39-1.031.39h-7.61c-.418 0-.765-.128-1.047-.39-.28-.257-.422-.597-.422-1.015v-13.72h-13.203v13.72c0 .418-.14.758-.422 1.015-.28.262-.632.39-1.046.39ZM292.68 213.756c-1.98 0-3.781-.382-5.406-1.14-1.625-.77-2.899-1.828-3.813-3.172a7.74 7.74 0 0 1-1.359-4.422c0-2.539 1.05-4.601 3.156-6.187 2.113-1.594 5.016-2.688 8.703-3.282l6.953-1.062v-.672c0-1.383-.28-2.395-.843-3.031-.563-.633-1.516-.953-2.86-.953-.742 0-1.367.136-1.875.406-.5.262-1.07.652-1.703 1.172-.492.406-.922.703-1.297.89-.148.262-.328.39-.547.39h-6.5c-.375 0-.687-.116-.937-.358a.993.993 0 0 1-.297-.875c.04-1 .547-2.125 1.516-3.375.968-1.25 2.441-2.32 4.422-3.22 1.976-.905 4.421-1.359 7.328-1.359 4.633 0 8.07 1.024 10.312 3.063 2.238 2.031 3.36 4.781 3.36 8.25v16.969c0 .375-.133.703-.391.984-.262.281-.602.422-1.016.422h-6.875a1.35 1.35 0 0 1-.984-.422 1.35 1.35 0 0 1-.422-.984v-1.953c-.824 1.156-1.965 2.101-3.422 2.828-1.449.726-3.183 1.093-5.203 1.093Zm2.797-6.609c1.644 0 2.977-.539 4-1.625 1.031-1.082 1.547-2.648 1.547-4.703v-.672l-4.64.781c-3.15.594-4.72 1.715-4.72 3.36 0 .867.364 1.558 1.094 2.078.727.523 1.633.781 2.719.781ZM318.54 213.194c-.407 0-.75-.129-1.032-.39-.28-.258-.421-.598-.421-1.016v-36.953c0-.407.14-.739.421-1 .282-.27.625-.407 1.032-.407h6.843c.407 0 .739.137 1 .407.258.261.391.593.391 1v18.703l7.453-8.516c.07-.07.211-.203.422-.39.207-.188.422-.329.64-.422.227-.094.508-.141.844-.141h7.891c.332 0 .617.125.86.375.25.242.374.547.374.922 0 .336-.132.633-.39.89l-9.86 10.86 11.266 13.953c.258.336.39.617.39.844 0 .367-.124.672-.374.922-.243.242-.547.359-.922.359h-8.11c-.492 0-.859-.07-1.109-.219-.242-.156-.527-.398-.86-.734l-8.515-10.531v10.078c0 .375-.133.703-.39.984a1.304 1.304 0 0 1-1 .422Zm0 0" fill="#023a15"/></svg>