<svg xmlns="http://www.w3.org/2000/svg" viewBox="0 0 512 512" style="enable-background:new 0 0 512 512" xml:space="preserve"><path style="fill:#fde8f9" d="M81.001 351c11.05 0 20 8.95 20 20s-8.95 20-20 20-20-8.95-20-20 8.95-20 20-20zM441.001 371c11.05 0 20 8.95 20 20s-8.95 20-20 20-20-8.95-20-20 8.95-20 20-20zM381.001 51c11.05 0 20 8.95 20 20s-8.95 20-20 20-20-8.95-20-20 8.95-20 20-20z"/><path style="fill:#6e9137" d="m342.961 352.94-24.61 115.149-8.84-16.109a105.43 105.43 0 0 1-12.49-40.48l-.47-4.82 46.41-53.74zM379.101 183.82l-21.699 101.55L323.921 301c-10.78 6.34-21.91 15.71-31.43 26.4 2.7-17.33 8.87-34.94 16.779-48.23l69.831-95.35zM211.961 305.63a131.997 131.997 0 0 1 31.52 94.91l-2.48 30.46v40l-22.46-13.4a103.83 103.83 0 0 1-43.47-51.25l-124.07-316 160.96 215.28z"/><path style="fill:#8ec155" d="m431.001 251-88.04 101.94-46.41 53.739L241.001 471v-40l30-70c4.39-11.41 12.17-23.14 21.49-33.6 9.52-10.69 20.649-20.061 31.43-26.4l33.48-15.63 73.6-34.37z"/><path d="M292.501 335.401a7.999 7.999 0 0 1-7.914-9.233c2.839-18.221 9.33-36.843 17.809-51.09a7.95 7.95 0 0 1 .421-.636l69.83-95.351a8 8 0 0 1 14.278 6.399l-21.699 101.55a8 8 0 0 1-9.495 6.151 8 8 0 0 1-6.151-9.495l13.887-64.988-47.51 64.872c-7.38 12.518-13.045 28.911-15.56 45.05a8.004 8.004 0 0 1-7.896 6.771zM318.348 476.09a8 8 0 0 1-7.011-4.151l-8.84-16.109c-7.424-13.541-11.945-28.194-13.44-43.555l-.469-4.818a7.998 7.998 0 0 1 7.185-8.738c4.394-.438 8.311 2.788 8.738 7.185l.47 4.82a96.847 96.847 0 0 0 10.056 34.591l20.1-94.046a8 8 0 1 1 15.646 3.344l-24.61 115.149a7.997 7.997 0 0 1-7.825 6.328z"/><path d="M240.998 479a8 8 0 0 1-6.052-13.228l165.56-191.701-72.85 34.015c-9.928 5.895-20.281 14.63-29.19 24.636-9.227 10.354-16.142 21.126-19.998 31.151a7.732 7.732 0 0 1-.113.279l-30 70a8.001 8.001 0 0 1-14.707-6.303l29.942-69.865c4.552-11.764 12.478-24.176 22.929-35.905 10.081-11.321 21.925-21.257 33.347-27.974.219-.129.442-.246.672-.353l107.079-50a8 8 0 0 1 9.44 12.478l-190 220a7.99 7.99 0 0 1-6.059 2.77z"/><path d="M241.001 479a7.991 7.991 0 0 1-4.099-1.13l-22.46-13.4c-21.179-12.63-37.806-32.233-46.818-55.197L43.554 93.274a7.999 7.999 0 0 1 3.555-9.913 7.998 7.998 0 0 1 10.299 2.199l160.801 215.067c23.948 28.017 35.755 63.681 33.253 100.456l-.009.107L249 431.326V471a8 8 0 0 1-7.999 8zM80.146 142.69l102.372 260.736c7.723 19.681 21.972 36.479 40.121 47.303l10.362 6.183V431c0-.217.009-.434.026-.649l2.476-30.405c2.207-32.634-8.309-64.277-29.613-89.105a8.46 8.46 0 0 1-.336-.42L80.146 142.69zM289.783 249.642a8.002 8.002 0 0 1-7.448-5.078l-78.781-200.64a8 8 0 0 1 12.863-8.812c.285.262 28.824 26.584 56.967 58.349 38.756 43.744 58.407 76.847 58.407 98.389a8 8 0 0 1-8 8 8 8 0 0 1-8-8c0-27.771-48-82.851-83.797-119.274l65.234 166.14a8 8 0 0 1-7.445 10.926zM441.001 419c-15.44 0-28-12.56-28-28s12.56-28 28-28c15.439 0 28 12.56 28 28s-12.561 28-28 28zm0-40c-6.617 0-12 5.383-12 12s5.383 12 12 12 12-5.383 12-12-5.383-12-12-12zM381.001 99c-15.44 0-28-12.561-28-28s12.56-28 28-28c15.439 0 28 12.561 28 28s-12.561 28-28 28zm0-40c-6.617 0-12 5.383-12 12s5.383 12 12 12 12-5.383 12-12-5.383-12-12-12zM81.001 399c-15.439 0-28-12.56-28-28s12.561-28 28-28 28 12.56 28 28-12.561 28-28 28zm0-40c-6.617 0-12 5.383-12 12s5.383 12 12 12 12-5.383 12-12-5.383-12-12-12z"/><path d="M361.001 479h-220c-4.419 0-8-3.582-8-8s3.581-8 8-8h220a8 8 0 0 1 0 16zM150.995 229.002a8 8 0 0 1-7.171-11.537c30.09-61.09 11.316-109.671 9.871-113.213a8.006 8.006 0 0 1 1.654-8.904 7.993 7.993 0 0 1 11.309-.005l.01.01a7.982 7.982 0 0 1 1.728 2.579c1.079 2.58 6.52 16.512 8.025 38.28 2.034 29.421-4.274 59.963-18.243 88.323a8 8 0 0 1-7.183 4.467z"/><path d="M220.997 249a8 8 0 0 1-7.994-7.808c-1.581-65.833-57.596-134.404-58.161-135.089a8 8 0 0 1 12.337-10.188c2.454 2.971 60.107 73.583 61.819 144.892a8 8 0 0 1-8.001 8.193z"/></svg>